<?xml version="1.0" ?><svg id="Layer_1" style="enable-background:new 0 0 128 128;" version="1.1" viewBox="0 0 128 128" xml:space="preserve" xmlns="http://www.w3.org/2000/svg" xmlns:xlink="http://www.w3.org/1999/xlink"><style type="text/css">
	.st0{fill-rule:evenodd;clip-rule:evenodd;fill:#7ACED7;}
	.st1{fill-rule:evenodd;clip-rule:evenodd;}
</style><path class="st0" d="M60,5.2C60,5.2,60,5.2,60,5.2c1.6-1.6,4.1-1.6,5.7,0c0,0,0,0,0,0l50.3,50.3  c1.6,1.6,1.6,4.1,0,5.7c-1.6,1.6-4.1,1.6-5.7,0L62.8,13.6L15.4,61.1c-1.6,1.6-4.1,1.6-5.7,0c-1.6-1.6-1.6-4.1,0-5.7L60,5.2L60,5.2z   M62.8,19.3L24.1,58v66h18.2V57.1h41.1V124h18.2V58L62.8,19.3z" id="XMLID_14_"/><path class="st1" d="M62.8,19.3L24.1,58v66h18.2v-5v-4v-4v-4v-4v-4v-4v-4v-4v-4v-4v-4v-4v-4v-9.9h41.1V67v4v4v4v4v4v4  v4v4v4v4v4v4v4v5h18.2V58L62.8,19.3L62.8,19.3z M46.3,71h33.1v4H46.3V71L46.3,71z M79.4,67H46.3v-5.9h33.1V67L79.4,67z M46.3,79  h33.1v4H46.3V79L46.3,79z M46.3,87h33.1v4H46.3V87L46.3,87z M46.3,95h33.1v4H46.3V95L46.3,95z M46.3,103h33.1v4H46.3V103L46.3,103z   M46.3,111h33.1v4H46.3V111L46.3,111z M46.3,119h33.1v5H62.8H46.3V119L46.3,119z M20.1,62l-1.9,1.9C15.1,67,10,67,6.9,63.9  c-3.1-3.1-3.1-8.2,0-11.3L57.2,2.3c3.1-3.1,8.2-3.1,11.3,0c20.9,20.9,11.5,11.5,50.3,50.3c3.1,3.1,3.1,8.2,0,11.3  c-3.1,3.1-8.2,3.1-11.3,0l-1.9-1.9v64c0,1.1-0.9,2-2,2H83.4H42.3H22.1c-1.1,0-2-0.9-2-2V62L20.1,62z M110.3,61.1  C94.5,45.3,78.6,29.5,62.8,13.6L15.4,61.1c-1.6,1.6-4.1,1.6-5.7,0c-1.6-1.6-1.6-4.1,0-5.7L60,5.2c0,0,0,0,0,0c1.6-1.6,4.1-1.6,5.7,0  c0,0,0,0,0,0c16.8,16.8,33.5,33.5,50.3,50.3c1.6,1.6,1.6,4.1,0,5.7C114.4,62.7,111.8,62.7,110.3,61.1z" id="XMLID_2_"/></svg>